<?xml version="1.0" encoding="utf-8" standalone="no"?>
<!DOCTYPE svg PUBLIC "-//W3C//DTD SVG 1.1//EN"
  "http://www.w3.org/Graphics/SVG/1.1/DTD/svg11.dtd">
<svg xmlns:xlink="http://www.w3.org/1999/xlink" width="234pt" height="126pt" viewBox="0 0 234 126" xmlns="http://www.w3.org/2000/svg" version="1.1">
 <metadata>
  <rdf:RDF xmlns:dc="http://purl.org/dc/elements/1.1/" xmlns:cc="http://creativecommons.org/ns#" xmlns:rdf="http://www.w3.org/1999/02/22-rdf-syntax-ns#">
   <cc:Work>
    <dc:type rdf:resource="http://purl.org/dc/dcmitype/StillImage"/>
    <dc:date>2026-03-29T12:37:22.588987</dc:date>
    <dc:format>image/svg+xml</dc:format>
    <dc:creator>
     <cc:Agent>
      <dc:title>Matplotlib v3.10.6, https://matplotlib.org/</dc:title>
     </cc:Agent>
    </dc:creator>
   </cc:Work>
  </rdf:RDF>
 </metadata>
 <defs>
  <style type="text/css">*{stroke-linejoin: round; stroke-linecap: butt}</style>
 </defs>
 <g id="figure_1">
  <g id="patch_1">
   <path d="M 0 126 
L 234 126 
L 234 0 
L 0 0 
z
" style="fill: #ffffff"/>
  </g>
  <g id="axes_1">
   <g id="patch_2">
    <path d="M 14.742 99.792 
L 99.918 99.792 
Q 105.768 99.792 105.768 96.642 
L 105.768 34.398 
Q 105.768 31.248 99.918 31.248 
L 14.742 31.248 
Q 8.892 31.248 8.892 34.398 
L 8.892 96.642 
Q 8.892 99.792 14.742 99.792 
z
" clip-path="url(#p1ea1f50cc4)" style="fill: #f5f2eb; stroke: #d6d1c8; stroke-width: 0.7; stroke-linejoin: miter"/>
   </g>
   <g id="patch_3">
    <path d="M 134.082 99.792 
L 219.258 99.792 
Q 225.108 99.792 225.108 96.642 
L 225.108 34.398 
Q 225.108 31.248 219.258 31.248 
L 134.082 31.248 
Q 128.232 31.248 128.232 34.398 
L 128.232 96.642 
Q 128.232 99.792 134.082 99.792 
z
" clip-path="url(#p1ea1f50cc4)" style="fill: #f5f2eb; stroke: #d6d1c8; stroke-width: 0.7; stroke-linejoin: miter"/>
   </g>
   <g id="patch_4">
    <path d="M 20.826 87.7968 
L 93.834 87.7968 
L 93.834 81.2448 
L 20.826 81.2448 
z
" clip-path="url(#p1ea1f50cc4)" style="fill: #c7c0b5"/>
   </g>
   <g id="patch_5">
    <path d="M 140.166 87.7968 
L 213.174 87.7968 
L 213.174 81.2448 
L 140.166 81.2448 
z
" clip-path="url(#p1ea1f50cc4)" style="fill: #d7d1c6"/>
   </g>
   <g id="patch_6">
    <path d="M 147.19302 81.2448 
L 149.292 73.3824 
L 151.39098 81.2448 
z
" clip-path="url(#p1ea1f50cc4)" style="fill: #e69a37; stroke: #fff5d1; stroke-width: 0.35"/>
   </g>
   <g id="patch_7">
    <path d="M 158.32674 81.2448 
L 160.60824 66.8304 
L 162.88974 81.2448 
z
" clip-path="url(#p1ea1f50cc4)" style="fill: #e69a37; stroke: #fff5d1; stroke-width: 0.35"/>
   </g>
   <g id="patch_8">
    <path d="M 169.04979 81.2448 
L 171.10314 71.4168 
L 173.15649 81.2448 
z
" clip-path="url(#p1ea1f50cc4)" style="fill: #e69a37; stroke: #fff5d1; stroke-width: 0.35"/>
   </g>
   <g id="patch_9">
    <path d="M 181.14174 81.2448 
L 183.33198 68.1408 
L 185.52222 81.2448 
z
" clip-path="url(#p1ea1f50cc4)" style="fill: #e69a37; stroke: #fff5d1; stroke-width: 0.35"/>
   </g>
   <g id="patch_10">
    <path d="M 191.81916 81.2448 
L 193.82688 70.7616 
L 195.8346 81.2448 
z
" clip-path="url(#p1ea1f50cc4)" style="fill: #e69a37; stroke: #fff5d1; stroke-width: 0.35"/>
   </g>
   <g id="patch_11">
    <path d="M 204.00237 81.2448 
L 205.96446 72.7272 
L 207.92655 81.2448 
z
" clip-path="url(#p1ea1f50cc4)" style="fill: #e69a37; stroke: #fff5d1; stroke-width: 0.35"/>
   </g>
   <g id="patch_12">
    <path d="M 28.1268 79.506 
C 28.561203 79.506 28.977872 79.413067 29.285041 79.247668 
C 29.59221 79.082269 29.7648 78.857909 29.7648 78.624 
C 29.7648 78.390091 29.59221 78.165731 29.285041 78.000332 
C 28.977872 77.834933 28.561203 77.742 28.1268 77.742 
C 27.692397 77.742 27.275728 77.834933 26.968559 78.000332 
C 26.66139 78.165731 26.4888 78.390091 26.4888 78.624 
C 26.4888 78.857909 26.66139 79.082269 26.968559 79.247668 
C 27.275728 79.413067 27.692397 79.506 28.1268 79.506 
z
" clip-path="url(#p1ea1f50cc4)" style="fill: #9b7bd6; opacity: 0.32"/>
   </g>
   <g id="patch_13">
    <path d="M 39.80808 79.506 
C 40.242483 79.506 40.659152 79.413067 40.966321 79.247668 
C 41.27349 79.082269 41.44608 78.857909 41.44608 78.624 
C 41.44608 78.390091 41.27349 78.165731 40.966321 78.000332 
C 40.659152 77.834933 40.242483 77.742 39.80808 77.742 
C 39.373677 77.742 38.957008 77.834933 38.649839 78.000332 
C 38.34267 78.165731 38.17008 78.390091 38.17008 78.624 
C 38.17008 78.857909 38.34267 79.082269 38.649839 79.247668 
C 38.957008 79.413067 39.373677 79.506 39.80808 79.506 
z
" clip-path="url(#p1ea1f50cc4)" style="fill: #9b7bd6; opacity: 0.32"/>
   </g>
   <g id="patch_14">
    <path d="M 51.48936 79.506 
C 51.923763 79.506 52.340432 79.413067 52.647601 79.247668 
C 52.95477 79.082269 53.12736 78.857909 53.12736 78.624 
C 53.12736 78.390091 52.95477 78.165731 52.647601 78.000332 
C 52.340432 77.834933 51.923763 77.742 51.48936 77.742 
C 51.054957 77.742 50.638288 77.834933 50.331119 78.000332 
C 50.02395 78.165731 49.85136 78.390091 49.85136 78.624 
C 49.85136 78.857909 50.02395 79.082269 50.331119 79.247668 
C 50.638288 79.413067 51.054957 79.506 51.48936 79.506 
z
" clip-path="url(#p1ea1f50cc4)" style="fill: #9b7bd6; opacity: 0.32"/>
   </g>
   <g id="patch_15">
    <path d="M 63.17064 79.506 
C 63.605043 79.506 64.021712 79.413067 64.328881 79.247668 
C 64.63605 79.082269 64.80864 78.857909 64.80864 78.624 
C 64.80864 78.390091 64.63605 78.165731 64.328881 78.000332 
C 64.021712 77.834933 63.605043 77.742 63.17064 77.742 
C 62.736237 77.742 62.319568 77.834933 62.012399 78.000332 
C 61.70523 78.165731 61.53264 78.390091 61.53264 78.624 
C 61.53264 78.857909 61.70523 79.082269 62.012399 79.247668 
C 62.319568 79.413067 62.736237 79.506 63.17064 79.506 
z
" clip-path="url(#p1ea1f50cc4)" style="fill: #9b7bd6; opacity: 0.32"/>
   </g>
   <g id="patch_16">
    <path d="M 74.85192 79.506 
C 75.286323 79.506 75.702992 79.413067 76.010161 79.247668 
C 76.31733 79.082269 76.48992 78.857909 76.48992 78.624 
C 76.48992 78.390091 76.31733 78.165731 76.010161 78.000332 
C 75.702992 77.834933 75.286323 77.742 74.85192 77.742 
C 74.417517 77.742 74.000848 77.834933 73.693679 78.000332 
C 73.38651 78.165731 73.21392 78.390091 73.21392 78.624 
C 73.21392 78.857909 73.38651 79.082269 73.693679 79.247668 
C 74.000848 79.413067 74.417517 79.506 74.85192 79.506 
z
" clip-path="url(#p1ea1f50cc4)" style="fill: #9b7bd6; opacity: 0.32"/>
   </g>
   <g id="patch_17">
    <path d="M 86.5332 79.506 
C 86.967603 79.506 87.384272 79.413067 87.691441 79.247668 
C 87.99861 79.082269 88.1712 78.857909 88.1712 78.624 
C 88.1712 78.390091 87.99861 78.165731 87.691441 78.000332 
C 87.384272 77.834933 86.967603 77.742 86.5332 77.742 
C 86.098797 77.742 85.682128 77.834933 85.374959 78.000332 
C 85.06779 78.165731 84.8952 78.390091 84.8952 78.624 
C 84.8952 78.857909 85.06779 79.082269 85.374959 79.247668 
C 85.682128 79.413067 86.098797 79.506 86.5332 79.506 
z
" clip-path="url(#p1ea1f50cc4)" style="fill: #9b7bd6; opacity: 0.32"/>
   </g>
   <g id="patch_18">
    <path d="M 28.1268 72.5172 
C 28.561203 72.5172 28.977872 72.424267 29.285041 72.258868 
C 29.59221 72.093469 29.7648 71.869109 29.7648 71.6352 
C 29.7648 71.401291 29.59221 71.176931 29.285041 71.011532 
C 28.977872 70.846133 28.561203 70.7532 28.1268 70.7532 
C 27.692397 70.7532 27.275728 70.846133 26.968559 71.011532 
C 26.66139 71.176931 26.4888 71.401291 26.4888 71.6352 
C 26.4888 71.869109 26.66139 72.093469 26.968559 72.258868 
C 27.275728 72.424267 27.692397 72.5172 28.1268 72.5172 
z
" clip-path="url(#p1ea1f50cc4)" style="fill: #9b7bd6; opacity: 0.32"/>
   </g>
   <g id="patch_19">
    <path d="M 39.80808 72.5172 
C 40.242483 72.5172 40.659152 72.424267 40.966321 72.258868 
C 41.27349 72.093469 41.44608 71.869109 41.44608 71.6352 
C 41.44608 71.401291 41.27349 71.176931 40.966321 71.011532 
C 40.659152 70.846133 40.242483 70.7532 39.80808 70.7532 
C 39.373677 70.7532 38.957008 70.846133 38.649839 71.011532 
C 38.34267 71.176931 38.17008 71.401291 38.17008 71.6352 
C 38.17008 71.869109 38.34267 72.093469 38.649839 72.258868 
C 38.957008 72.424267 39.373677 72.5172 39.80808 72.5172 
z
" clip-path="url(#p1ea1f50cc4)" style="fill: #9b7bd6; opacity: 0.32"/>
   </g>
   <g id="patch_20">
    <path d="M 51.48936 72.5172 
C 51.923763 72.5172 52.340432 72.424267 52.647601 72.258868 
C 52.95477 72.093469 53.12736 71.869109 53.12736 71.6352 
C 53.12736 71.401291 52.95477 71.176931 52.647601 71.011532 
C 52.340432 70.846133 51.923763 70.7532 51.48936 70.7532 
C 51.054957 70.7532 50.638288 70.846133 50.331119 71.011532 
C 50.02395 71.176931 49.85136 71.401291 49.85136 71.6352 
C 49.85136 71.869109 50.02395 72.093469 50.331119 72.258868 
C 50.638288 72.424267 51.054957 72.5172 51.48936 72.5172 
z
" clip-path="url(#p1ea1f50cc4)" style="fill: #9b7bd6; opacity: 0.32"/>
   </g>
   <g id="patch_21">
    <path d="M 63.17064 72.5172 
C 63.605043 72.5172 64.021712 72.424267 64.328881 72.258868 
C 64.63605 72.093469 64.80864 71.869109 64.80864 71.6352 
C 64.80864 71.401291 64.63605 71.176931 64.328881 71.011532 
C 64.021712 70.846133 63.605043 70.7532 63.17064 70.7532 
C 62.736237 70.7532 62.319568 70.846133 62.012399 71.011532 
C 61.70523 71.176931 61.53264 71.401291 61.53264 71.6352 
C 61.53264 71.869109 61.70523 72.093469 62.012399 72.258868 
C 62.319568 72.424267 62.736237 72.5172 63.17064 72.5172 
z
" clip-path="url(#p1ea1f50cc4)" style="fill: #9b7bd6; opacity: 0.32"/>
   </g>
   <g id="patch_22">
    <path d="M 74.85192 72.5172 
C 75.286323 72.5172 75.702992 72.424267 76.010161 72.258868 
C 76.31733 72.093469 76.48992 71.869109 76.48992 71.6352 
C 76.48992 71.401291 76.31733 71.176931 76.010161 71.011532 
C 75.702992 70.846133 75.286323 70.7532 74.85192 70.7532 
C 74.417517 70.7532 74.000848 70.846133 73.693679 71.011532 
C 73.38651 71.176931 73.21392 71.401291 73.21392 71.6352 
C 73.21392 71.869109 73.38651 72.093469 73.693679 72.258868 
C 74.000848 72.424267 74.417517 72.5172 74.85192 72.5172 
z
" clip-path="url(#p1ea1f50cc4)" style="fill: #9b7bd6; opacity: 0.32"/>
   </g>
   <g id="patch_23">
    <path d="M 86.5332 72.5172 
C 86.967603 72.5172 87.384272 72.424267 87.691441 72.258868 
C 87.99861 72.093469 88.1712 71.869109 88.1712 71.6352 
C 88.1712 71.401291 87.99861 71.176931 87.691441 71.011532 
C 87.384272 70.846133 86.967603 70.7532 86.5332 70.7532 
C 86.098797 70.7532 85.682128 70.846133 85.374959 71.011532 
C 85.06779 71.176931 84.8952 71.401291 84.8952 71.6352 
C 84.8952 71.869109 85.06779 72.093469 85.374959 72.258868 
C 85.682128 72.424267 86.098797 72.5172 86.5332 72.5172 
z
" clip-path="url(#p1ea1f50cc4)" style="fill: #9b7bd6; opacity: 0.32"/>
   </g>
   <g id="patch_24">
    <path d="M 28.1268 65.5284 
C 28.561203 65.5284 28.977872 65.435467 29.285041 65.270068 
C 29.59221 65.104669 29.7648 64.880309 29.7648 64.6464 
C 29.7648 64.412491 29.59221 64.188131 29.285041 64.022732 
C 28.977872 63.857333 28.561203 63.7644 28.1268 63.7644 
C 27.692397 63.7644 27.275728 63.857333 26.968559 64.022732 
C 26.66139 64.188131 26.4888 64.412491 26.4888 64.6464 
C 26.4888 64.880309 26.66139 65.104669 26.968559 65.270068 
C 27.275728 65.435467 27.692397 65.5284 28.1268 65.5284 
z
" clip-path="url(#p1ea1f50cc4)" style="fill: #9b7bd6; opacity: 0.32"/>
   </g>
   <g id="patch_25">
    <path d="M 39.80808 65.5284 
C 40.242483 65.5284 40.659152 65.435467 40.966321 65.270068 
C 41.27349 65.104669 41.44608 64.880309 41.44608 64.6464 
C 41.44608 64.412491 41.27349 64.188131 40.966321 64.022732 
C 40.659152 63.857333 40.242483 63.7644 39.80808 63.7644 
C 39.373677 63.7644 38.957008 63.857333 38.649839 64.022732 
C 38.34267 64.188131 38.17008 64.412491 38.17008 64.6464 
C 38.17008 64.880309 38.34267 65.104669 38.649839 65.270068 
C 38.957008 65.435467 39.373677 65.5284 39.80808 65.5284 
z
" clip-path="url(#p1ea1f50cc4)" style="fill: #9b7bd6; opacity: 0.32"/>
   </g>
   <g id="patch_26">
    <path d="M 51.48936 65.5284 
C 51.923763 65.5284 52.340432 65.435467 52.647601 65.270068 
C 52.95477 65.104669 53.12736 64.880309 53.12736 64.6464 
C 53.12736 64.412491 52.95477 64.188131 52.647601 64.022732 
C 52.340432 63.857333 51.923763 63.7644 51.48936 63.7644 
C 51.054957 63.7644 50.638288 63.857333 50.331119 64.022732 
C 50.02395 64.188131 49.85136 64.412491 49.85136 64.6464 
C 49.85136 64.880309 50.02395 65.104669 50.331119 65.270068 
C 50.638288 65.435467 51.054957 65.5284 51.48936 65.5284 
z
" clip-path="url(#p1ea1f50cc4)" style="fill: #9b7bd6; opacity: 0.32"/>
   </g>
   <g id="patch_27">
    <path d="M 63.17064 65.5284 
C 63.605043 65.5284 64.021712 65.435467 64.328881 65.270068 
C 64.63605 65.104669 64.80864 64.880309 64.80864 64.6464 
C 64.80864 64.412491 64.63605 64.188131 64.328881 64.022732 
C 64.021712 63.857333 63.605043 63.7644 63.17064 63.7644 
C 62.736237 63.7644 62.319568 63.857333 62.012399 64.022732 
C 61.70523 64.188131 61.53264 64.412491 61.53264 64.6464 
C 61.53264 64.880309 61.70523 65.104669 62.012399 65.270068 
C 62.319568 65.435467 62.736237 65.5284 63.17064 65.5284 
z
" clip-path="url(#p1ea1f50cc4)" style="fill: #9b7bd6; opacity: 0.32"/>
   </g>
   <g id="patch_28">
    <path d="M 74.85192 65.5284 
C 75.286323 65.5284 75.702992 65.435467 76.010161 65.270068 
C 76.31733 65.104669 76.48992 64.880309 76.48992 64.6464 
C 76.48992 64.412491 76.31733 64.188131 76.010161 64.022732 
C 75.702992 63.857333 75.286323 63.7644 74.85192 63.7644 
C 74.417517 63.7644 74.000848 63.857333 73.693679 64.022732 
C 73.38651 64.188131 73.21392 64.412491 73.21392 64.6464 
C 73.21392 64.880309 73.38651 65.104669 73.693679 65.270068 
C 74.000848 65.435467 74.417517 65.5284 74.85192 65.5284 
z
" clip-path="url(#p1ea1f50cc4)" style="fill: #9b7bd6; opacity: 0.32"/>
   </g>
   <g id="patch_29">
    <path d="M 86.5332 65.5284 
C 86.967603 65.5284 87.384272 65.435467 87.691441 65.270068 
C 87.99861 65.104669 88.1712 64.880309 88.1712 64.6464 
C 88.1712 64.412491 87.99861 64.188131 87.691441 64.022732 
C 87.384272 63.857333 86.967603 63.7644 86.5332 63.7644 
C 86.098797 63.7644 85.682128 63.857333 85.374959 64.022732 
C 85.06779 64.188131 84.8952 64.412491 84.8952 64.6464 
C 84.8952 64.880309 85.06779 65.104669 85.374959 65.270068 
C 85.682128 65.435467 86.098797 65.5284 86.5332 65.5284 
z
" clip-path="url(#p1ea1f50cc4)" style="fill: #9b7bd6; opacity: 0.32"/>
   </g>
   <g id="patch_30">
    <path d="M 28.1268 58.5396 
C 28.561203 58.5396 28.977872 58.446667 29.285041 58.281268 
C 29.59221 58.115869 29.7648 57.891509 29.7648 57.6576 
C 29.7648 57.423691 29.59221 57.199331 29.285041 57.033932 
C 28.977872 56.868533 28.561203 56.7756 28.1268 56.7756 
C 27.692397 56.7756 27.275728 56.868533 26.968559 57.033932 
C 26.66139 57.199331 26.4888 57.423691 26.4888 57.6576 
C 26.4888 57.891509 26.66139 58.115869 26.968559 58.281268 
C 27.275728 58.446667 27.692397 58.5396 28.1268 58.5396 
z
" clip-path="url(#p1ea1f50cc4)" style="fill: #9b7bd6; opacity: 0.32"/>
   </g>
   <g id="patch_31">
    <path d="M 39.80808 58.5396 
C 40.242483 58.5396 40.659152 58.446667 40.966321 58.281268 
C 41.27349 58.115869 41.44608 57.891509 41.44608 57.6576 
C 41.44608 57.423691 41.27349 57.199331 40.966321 57.033932 
C 40.659152 56.868533 40.242483 56.7756 39.80808 56.7756 
C 39.373677 56.7756 38.957008 56.868533 38.649839 57.033932 
C 38.34267 57.199331 38.17008 57.423691 38.17008 57.6576 
C 38.17008 57.891509 38.34267 58.115869 38.649839 58.281268 
C 38.957008 58.446667 39.373677 58.5396 39.80808 58.5396 
z
" clip-path="url(#p1ea1f50cc4)" style="fill: #9b7bd6; opacity: 0.32"/>
   </g>
   <g id="patch_32">
    <path d="M 51.48936 58.5396 
C 51.923763 58.5396 52.340432 58.446667 52.647601 58.281268 
C 52.95477 58.115869 53.12736 57.891509 53.12736 57.6576 
C 53.12736 57.423691 52.95477 57.199331 52.647601 57.033932 
C 52.340432 56.868533 51.923763 56.7756 51.48936 56.7756 
C 51.054957 56.7756 50.638288 56.868533 50.331119 57.033932 
C 50.02395 57.199331 49.85136 57.423691 49.85136 57.6576 
C 49.85136 57.891509 50.02395 58.115869 50.331119 58.281268 
C 50.638288 58.446667 51.054957 58.5396 51.48936 58.5396 
z
" clip-path="url(#p1ea1f50cc4)" style="fill: #9b7bd6; opacity: 0.32"/>
   </g>
   <g id="patch_33">
    <path d="M 63.17064 58.5396 
C 63.605043 58.5396 64.021712 58.446667 64.328881 58.281268 
C 64.63605 58.115869 64.80864 57.891509 64.80864 57.6576 
C 64.80864 57.423691 64.63605 57.199331 64.328881 57.033932 
C 64.021712 56.868533 63.605043 56.7756 63.17064 56.7756 
C 62.736237 56.7756 62.319568 56.868533 62.012399 57.033932 
C 61.70523 57.199331 61.53264 57.423691 61.53264 57.6576 
C 61.53264 57.891509 61.70523 58.115869 62.012399 58.281268 
C 62.319568 58.446667 62.736237 58.5396 63.17064 58.5396 
z
" clip-path="url(#p1ea1f50cc4)" style="fill: #9b7bd6; opacity: 0.32"/>
   </g>
   <g id="patch_34">
    <path d="M 74.85192 58.5396 
C 75.286323 58.5396 75.702992 58.446667 76.010161 58.281268 
C 76.31733 58.115869 76.48992 57.891509 76.48992 57.6576 
C 76.48992 57.423691 76.31733 57.199331 76.010161 57.033932 
C 75.702992 56.868533 75.286323 56.7756 74.85192 56.7756 
C 74.417517 56.7756 74.000848 56.868533 73.693679 57.033932 
C 73.38651 57.199331 73.21392 57.423691 73.21392 57.6576 
C 73.21392 57.891509 73.38651 58.115869 73.693679 58.281268 
C 74.000848 58.446667 74.417517 58.5396 74.85192 58.5396 
z
" clip-path="url(#p1ea1f50cc4)" style="fill: #9b7bd6; opacity: 0.32"/>
   </g>
   <g id="patch_35">
    <path d="M 86.5332 58.5396 
C 86.967603 58.5396 87.384272 58.446667 87.691441 58.281268 
C 87.99861 58.115869 88.1712 57.891509 88.1712 57.6576 
C 88.1712 57.423691 87.99861 57.199331 87.691441 57.033932 
C 87.384272 56.868533 86.967603 56.7756 86.5332 56.7756 
C 86.098797 56.7756 85.682128 56.868533 85.374959 57.033932 
C 85.06779 57.199331 84.8952 57.423691 84.8952 57.6576 
C 84.8952 57.891509 85.06779 58.115869 85.374959 58.281268 
C 85.682128 58.446667 86.098797 58.5396 86.5332 58.5396 
z
" clip-path="url(#p1ea1f50cc4)" style="fill: #9b7bd6; opacity: 0.32"/>
   </g>
   <g id="patch_36">
    <path d="M 148.872204 79.829568 
L 149.25002 74.011392 
L 149.963674 79.829568 
z
" clip-path="url(#p1ea1f50cc4)" style="fill: #fde5a4; opacity: 0.82"/>
   </g>
   <g id="patch_37">
    <path d="M 160.15194 78.650208 
L 160.56261 67.983552 
L 161.33832 78.650208 
z
" clip-path="url(#p1ea1f50cc4)" style="fill: #fde5a4; opacity: 0.82"/>
   </g>
   <g id="patch_38">
    <path d="M 170.69247 79.47576 
L 171.062073 72.20304 
L 171.760212 79.47576 
z
" clip-path="url(#p1ea1f50cc4)" style="fill: #fde5a4; opacity: 0.82"/>
   </g>
   <g id="patch_39">
    <path d="M 182.893932 78.88608 
L 183.288175 69.18912 
L 184.032857 78.88608 
z
" clip-path="url(#p1ea1f50cc4)" style="fill: #fde5a4; opacity: 0.82"/>
   </g>
   <g id="patch_40">
    <path d="M 193.425336 79.357824 
L 193.786726 71.600256 
L 194.46935 79.357824 
z
" clip-path="url(#p1ea1f50cc4)" style="fill: #fde5a4; opacity: 0.82"/>
   </g>
   <g id="patch_41">
    <path d="M 205.572042 79.711632 
L 205.925218 73.408608 
L 206.592329 79.711632 
z
" clip-path="url(#p1ea1f50cc4)" style="fill: #fde5a4; opacity: 0.82"/>
   </g>
   <g id="patch_42">
    <path d="M 170.586 75.3858 
C 170.927316 75.3858 171.254699 75.312781 171.496046 75.182825 
C 171.737394 75.052869 171.873 74.876586 171.873 74.6928 
C 171.873 74.509014 171.737394 74.332731 171.496046 74.202775 
C 171.254699 74.072819 170.927316 73.9998 170.586 73.9998 
C 170.244684 73.9998 169.917301 74.072819 169.675954 74.202775 
C 169.434606 74.332731 169.299 74.509014 169.299 74.6928 
C 169.299 74.876586 169.434606 75.052869 169.675954 75.182825 
C 169.917301 75.312781 170.244684 75.3858 170.586 75.3858 
z
" clip-path="url(#p1ea1f50cc4)" style="fill: #9b7bd6; opacity: 0.144"/>
   </g>
   <g id="patch_43">
    <path d="M 182.754 75.3858 
C 183.095316 75.3858 183.422699 75.312781 183.664046 75.182825 
C 183.905394 75.052869 184.041 74.876586 184.041 74.6928 
C 184.041 74.509014 183.905394 74.332731 183.664046 74.202775 
C 183.422699 74.072819 183.095316 73.9998 182.754 73.9998 
C 182.412684 73.9998 182.085301 74.072819 181.843954 74.202775 
C 181.602606 74.332731 181.467 74.509014 181.467 74.6928 
C 181.467 74.876586 181.602606 75.052869 181.843954 75.182825 
C 182.085301 75.312781 182.412684 75.3858 182.754 75.3858 
z
" clip-path="url(#p1ea1f50cc4)" style="fill: #9b7bd6; opacity: 0.144"/>
   </g>
   <g id="patch_44">
    <path d="M 158.418 64.2474 
C 158.759316 64.2474 159.086699 64.174381 159.328046 64.044425 
C 159.569394 63.914469 159.705 63.738186 159.705 63.5544 
C 159.705 63.370614 159.569394 63.194331 159.328046 63.064375 
C 159.086699 62.934419 158.759316 62.8614 158.418 62.8614 
C 158.076684 62.8614 157.749301 62.934419 157.507954 63.064375 
C 157.266606 63.194331 157.131 63.370614 157.131 63.5544 
C 157.131 63.738186 157.266606 63.914469 157.507954 64.044425 
C 157.749301 64.174381 158.076684 64.2474 158.418 64.2474 
z
" clip-path="url(#p1ea1f50cc4)" style="fill: #9b7bd6; opacity: 0.144"/>
   </g>
   <g id="patch_45">
    <path d="M 170.586 64.2474 
C 170.927316 64.2474 171.254699 64.174381 171.496046 64.044425 
C 171.737394 63.914469 171.873 63.738186 171.873 63.5544 
C 171.873 63.370614 171.737394 63.194331 171.496046 63.064375 
C 171.254699 62.934419 170.927316 62.8614 170.586 62.8614 
C 170.244684 62.8614 169.917301 62.934419 169.675954 63.064375 
C 169.434606 63.194331 169.299 63.370614 169.299 63.5544 
C 169.299 63.738186 169.434606 63.914469 169.675954 64.044425 
C 169.917301 64.174381 170.244684 64.2474 170.586 64.2474 
z
" clip-path="url(#p1ea1f50cc4)" style="fill: #9b7bd6; opacity: 0.144"/>
   </g>
   <g id="patch_46">
    <path d="M 194.922 64.2474 
C 195.263316 64.2474 195.590699 64.174381 195.832046 64.044425 
C 196.073394 63.914469 196.209 63.738186 196.209 63.5544 
C 196.209 63.370614 196.073394 63.194331 195.832046 63.064375 
C 195.590699 62.934419 195.263316 62.8614 194.922 62.8614 
C 194.580684 62.8614 194.253301 62.934419 194.011954 63.064375 
C 193.770606 63.194331 193.635 63.370614 193.635 63.5544 
C 193.635 63.738186 193.770606 63.914469 194.011954 64.044425 
C 194.253301 64.174381 194.580684 64.2474 194.922 64.2474 
z
" clip-path="url(#p1ea1f50cc4)" style="fill: #9b7bd6; opacity: 0.144"/>
   </g>
   <g id="patch_47">
    <path d="M 163.8936 62.8488 
C 164.191476 62.8488 164.477192 62.785074 164.687822 62.671658 
C 164.898453 62.558242 165.0168 62.404395 165.0168 62.244 
C 165.0168 62.083605 164.898453 61.929758 164.687822 61.816342 
C 164.477192 61.702926 164.191476 61.6392 163.8936 61.6392 
C 163.595724 61.6392 163.310008 61.702926 163.099378 61.816342 
C 162.888747 61.929758 162.7704 62.083605 162.7704 62.244 
C 162.7704 62.404395 162.888747 62.558242 163.099378 62.671658 
C 163.310008 62.785074 163.595724 62.8488 163.8936 62.8488 
z
" clip-path="url(#p1ea1f50cc4)" style="fill: #9b7bd6; opacity: 0.2"/>
   </g>
   <g id="patch_48">
    <path d="M 168.4566 66.1248 
C 168.754476 66.1248 169.040192 66.061074 169.250822 65.947658 
C 169.461453 65.834242 169.5798 65.680395 169.5798 65.52 
C 169.5798 65.359605 169.461453 65.205758 169.250822 65.092342 
C 169.040192 64.978926 168.754476 64.9152 168.4566 64.9152 
C 168.158724 64.9152 167.873008 64.978926 167.662378 65.092342 
C 167.451747 65.205758 167.3334 65.359605 167.3334 65.52 
C 167.3334 65.680395 167.451747 65.834242 167.662378 65.947658 
C 167.873008 66.061074 168.158724 66.1248 168.4566 66.1248 
z
" clip-path="url(#p1ea1f50cc4)" style="fill: #9b7bd6; opacity: 0.2"/>
   </g>
   <g id="patch_49">
    <path d="M 179.4078 68.0904 
C 179.705676 68.0904 179.991392 68.026674 180.202022 67.913258 
C 180.412653 67.799842 180.531 67.645995 180.531 67.4856 
C 180.531 67.325205 180.412653 67.171358 180.202022 67.057942 
C 179.991392 66.944526 179.705676 66.8808 179.4078 66.8808 
C 179.109924 66.8808 178.824208 66.944526 178.613578 67.057942 
C 178.402947 67.171358 178.2846 67.325205 178.2846 67.4856 
C 178.2846 67.645995 178.402947 67.799842 178.613578 67.913258 
C 178.824208 68.026674 179.109924 68.0904 179.4078 68.0904 
z
" clip-path="url(#p1ea1f50cc4)" style="fill: #9b7bd6; opacity: 0.2"/>
   </g>
   <g id="patch_50">
    <path d="M 186.7086 65.4696 
C 187.006476 65.4696 187.292192 65.405874 187.502822 65.292458 
C 187.713453 65.179042 187.8318 65.025195 187.8318 64.8648 
C 187.8318 64.704405 187.713453 64.550558 187.502822 64.437142 
C 187.292192 64.323726 187.006476 64.26 186.7086 64.26 
C 186.410724 64.26 186.125008 64.323726 185.914378 64.437142 
C 185.703747 64.550558 185.5854 64.704405 185.5854 64.8648 
C 185.5854 65.025195 185.703747 65.179042 185.914378 65.292458 
C 186.125008 65.405874 186.410724 65.4696 186.7086 65.4696 
z
" clip-path="url(#p1ea1f50cc4)" style="fill: #9b7bd6; opacity: 0.2"/>
   </g>
   <g id="patch_51">
    <path d="M 192.1842 62.1936 
C 192.482076 62.1936 192.767792 62.129874 192.978422 62.016458 
C 193.189053 61.903042 193.3074 61.749195 193.3074 61.5888 
C 193.3074 61.428405 193.189053 61.274558 192.978422 61.161142 
C 192.767792 61.047726 192.482076 60.984 192.1842 60.984 
C 191.886324 60.984 191.600608 61.047726 191.389978 61.161142 
C 191.179347 61.274558 191.061 61.428405 191.061 61.5888 
C 191.061 61.749195 191.179347 61.903042 191.389978 62.016458 
C 191.600608 62.129874 191.886324 62.1936 192.1842 62.1936 
z
" clip-path="url(#p1ea1f50cc4)" style="fill: #9b7bd6; opacity: 0.2"/>
   </g>
   <g id="patch_52">
    <path d="M 29.393338 69.272499 
L 40.019241 67.845934 
Q 44.4467 67.251532 43.342811 64.867515 
L 43.342811 64.867515 
Q 42.238921 62.483499 37.811462 63.077901 
L 27.185559 64.504466 
Q 22.7581 65.098868 23.861989 67.482885 
L 23.861989 67.482885 
Q 24.965879 69.866901 29.393338 69.272499 
z
" clip-path="url(#p1ea1f50cc4)" style="fill: #4ba6a2; stroke: #256d6b; stroke-width: 0.55; stroke-linejoin: miter"/>
   </g>
   <g id="patch_53">
    <path d="M 42.146641 62.956351 
L 52.991265 63.777027 
Q 57.509858 64.118975 58.144905 61.685886 
L 58.144905 61.685886 
Q 58.779952 59.252798 54.261359 58.910849 
L 43.416735 58.090173 
Q 38.898142 57.748225 38.263095 60.181314 
L 38.263095 60.181314 
Q 37.628048 62.614402 42.146641 62.956351 
z
" clip-path="url(#p1ea1f50cc4)" style="fill: #5d96d5; stroke: #2f6198; stroke-width: 0.55; stroke-linejoin: miter"/>
   </g>
   <g id="patch_54">
    <path d="M 59.118143 68.451657 
L 69.90297 67.427688 
Q 74.396648 67.001035 73.604291 64.581362 
L 73.604291 64.581362 
Q 72.811934 62.161689 68.318257 62.588343 
L 57.53343 63.612312 
Q 53.039752 64.038965 53.832109 66.458638 
L 53.832109 66.458638 
Q 54.624466 68.878311 59.118143 68.451657 
z
" clip-path="url(#p1ea1f50cc4)" style="fill: #63ba82; stroke: #2e7f4e; stroke-width: 0.55; stroke-linejoin: miter"/>
   </g>
   <g id="patch_55">
    <path d="M 72.015154 62.068702 
L 82.727044 63.294715 
Q 87.190331 63.805555 88.139033 61.402246 
L 88.139033 61.402246 
Q 89.087734 58.998937 84.624446 58.488098 
L 73.912556 57.262085 
Q 69.449269 56.751245 68.500567 59.154554 
L 68.500567 59.154554 
Q 67.551866 61.557863 72.015154 62.068702 
z
" clip-path="url(#p1ea1f50cc4)" style="fill: #4ba6a2; stroke: #256d6b; stroke-width: 0.55; stroke-linejoin: miter"/>
   </g>
   <g id="patch_56">
    <path d="M 37.584437 76.694285 
L 48.508961 76.282945 
Q 53.060845 76.111553 52.742546 73.660538 
L 52.742546 73.660538 
Q 52.424248 71.209523 47.872363 71.380915 
L 36.947839 71.792255 
Q 32.395955 71.963647 32.714254 74.414662 
L 32.714254 74.414662 
Q 33.032552 76.865677 37.584437 76.694285 
z
" clip-path="url(#p1ea1f50cc4)" style="fill: #5d96d5; stroke: #2f6198; stroke-width: 0.55; stroke-linejoin: miter"/>
   </g>
   <g id="patch_57">
    <path d="M 63.413239 76.938145 
L 74.337763 77.349485 
Q 78.889648 77.520877 79.207946 75.069862 
L 79.207946 75.069862 
Q 79.526245 72.618847 74.974361 72.447455 
L 64.049837 72.036115 
Q 59.497952 71.864723 59.179654 74.315738 
L 59.179654 74.315738 
Q 58.861355 76.766753 63.413239 76.938145 
z
" clip-path="url(#p1ea1f50cc4)" style="fill: #63ba82; stroke: #2e7f4e; stroke-width: 0.55; stroke-linejoin: miter"/>
   </g>
   <g id="patch_58">
    <path d="M 153.630735 66.397827 
L 164.475359 65.577151 
Q 168.993952 65.235202 168.358905 62.802114 
L 168.358905 62.802114 
Q 167.723858 60.369025 163.205265 60.710973 
L 152.360641 61.531649 
Q 147.842048 61.873598 148.477095 64.306686 
L 148.477095 64.306686 
Q 149.112142 66.739775 153.630735 66.397827 
z
" clip-path="url(#p1ea1f50cc4)" style="fill: #4ba6a2; stroke: #256d6b; stroke-width: 0.55; stroke-linejoin: miter"/>
   </g>
   <g id="patch_59">
    <path d="M 180.651241 63.611551 
L 191.495865 64.432227 
Q 196.014458 64.774175 196.649505 62.341086 
L 196.649505 62.341086 
Q 197.284552 59.907998 192.765959 59.566049 
L 181.921335 58.745373 
Q 177.402742 58.403425 176.767695 60.836514 
L 176.767695 60.836514 
Q 176.132648 63.269602 180.651241 63.611551 
z
" clip-path="url(#p1ea1f50cc4)" style="fill: #5d96d5; stroke: #2f6198; stroke-width: 0.55; stroke-linejoin: miter"/>
   </g>
   <g id="patch_60">
    <path d="M 168.619182 75.940801 
L 179.563711 75.735006 
Q 184.123931 75.649258 183.964685 73.193754 
L 183.964685 73.193754 
Q 183.805438 70.738251 179.245218 70.823999 
L 168.300689 71.029794 
Q 163.740469 71.115542 163.899715 73.571046 
L 163.899715 73.571046 
Q 164.058962 76.026549 168.619182 75.940801 
z
" clip-path="url(#p1ea1f50cc4)" style="fill: #63ba82; opacity: 0.48; stroke: #2e7f4e; stroke-width: 0.55; stroke-linejoin: miter"/>
   </g>
   <g id="patch_61">
    <path d="M 160.92635 70.87684 
L 171.341561 72.699052 
Q 175.681231 73.458306 177.091276 71.12156 
L 177.091276 71.12156 
Q 178.50132 68.784815 174.16165 68.02556 
L 163.746439 66.203348 
Q 159.406769 65.444094 157.996724 67.78084 
L 157.996724 67.78084 
Q 156.58668 70.117585 160.92635 70.87684 
z
" clip-path="url(#p1ea1f50cc4)" style="fill: #63ba82; opacity: 0.26; stroke: #2e7f4e; stroke-width: 0.55; stroke-linejoin: miter"/>
   </g>
   <g id="patch_62">
    <path d="M 33.810312 66.29922 
L 31.189256 66.651106 
Q 35.616716 66.056704 34.512826 63.672687 
L 36.433594 67.820876 
Q 35.329704 65.43686 30.902245 66.031262 
L 33.523301 65.679376 
Q 29.095841 66.273778 30.199731 68.657795 
L 28.278963 64.509606 
Q 29.382853 66.893622 33.810312 66.29922 
z
" clip-path="url(#p1ea1f50cc4)" style="fill: #d4f3ec; opacity: 0.42"/>
   </g>
   <g id="patch_63">
    <path d="M 48.310492 61.090528 
L 45.635485 60.888094 
Q 50.154078 61.230043 50.789125 58.796954 
L 49.684144 63.030528 
Q 50.31919 60.59744 45.800597 60.255491 
L 48.475604 60.457925 
Q 43.957011 60.115976 43.321964 62.549065 
L 44.426946 58.315491 
Q 43.791899 60.748579 48.310492 61.090528 
z
" clip-path="url(#p1ea1f50cc4)" style="fill: #dce9ff; opacity: 0.42"/>
   </g>
   <g id="patch_64">
    <path d="M 63.909539 65.651527 
L 61.249282 65.904106 
Q 65.74296 65.477453 64.950603 63.05778 
L 66.329304 67.268011 
Q 65.536947 64.848338 61.043269 65.274991 
L 63.703526 65.022413 
Q 59.209849 65.449066 60.002205 67.868739 
L 58.623505 63.658508 
Q 59.415861 66.078181 63.909539 65.651527 
z
" clip-path="url(#p1ea1f50cc4)" style="fill: #dcf6de; opacity: 0.42"/>
   </g>
   <g id="patch_65">
    <path d="M 78.405703 60.438945 
L 75.763437 60.136529 
Q 80.226724 60.647368 81.175425 58.244059 
L 79.524686 62.425816 
Q 80.473387 60.022507 76.010099 59.511668 
L 78.652365 59.814085 
Q 74.189078 59.303246 73.240377 61.706555 
L 74.891117 57.524798 
Q 73.942416 59.928106 78.405703 60.438945 
z
" clip-path="url(#p1ea1f50cc4)" style="fill: #d4f3ec; opacity: 0.42"/>
   </g>
   <g id="patch_66">
    <path d="M 42.893158 74.179176 
L 40.198442 74.28064 
Q 44.750327 74.109249 44.432028 71.658234 
L 44.985868 75.923 
Q 44.66757 73.471985 40.115685 73.643376 
L 42.810401 73.541912 
Q 38.258516 73.713304 38.576815 76.164319 
L 38.022975 71.899553 
Q 38.341273 74.350568 42.893158 74.179176 
z
" clip-path="url(#p1ea1f50cc4)" style="fill: #dce9ff; opacity: 0.42"/>
   </g>
   <g id="patch_67">
    <path d="M 69.320362 74.845345 
L 66.625647 74.743882 
Q 71.177531 74.915273 71.49583 72.464258 
L 70.94199 76.729024 
Q 71.260289 74.278009 66.708404 74.106618 
L 69.40312 74.208082 
Q 64.851235 74.03669 64.532937 76.487705 
L 65.086776 72.222939 
Q 64.768478 74.673954 69.320362 74.845345 
z
" clip-path="url(#p1ea1f50cc4)" style="fill: #dcf6de; opacity: 0.42"/>
   </g>
   <g id="patch_68">
    <path d="M 158.600698 63.689443 
L 155.925691 63.891876 
Q 160.444284 63.549928 159.809237 61.116839 
L 160.914218 65.350414 
Q 160.279172 62.917325 155.760578 63.259273 
L 158.435586 63.05684 
Q 153.916992 63.398788 154.552039 65.831877 
L 153.447058 61.598303 
Q 154.082105 64.031391 158.600698 63.689443 
z
" clip-path="url(#p1ea1f50cc4)" style="fill: #d4f3ec; opacity: 0.42"/>
   </g>
   <g id="patch_69">
    <path d="M 186.815092 61.745728 
L 184.140085 61.543294 
Q 188.658678 61.885243 189.293725 59.452154 
L 188.188744 63.685728 
Q 188.82379 61.25264 184.305197 60.910691 
L 186.980204 61.113125 
Q 182.461611 60.771176 181.826564 63.204265 
L 182.931546 58.970691 
Q 182.296499 61.403779 186.815092 61.745728 
z
" clip-path="url(#p1ea1f50cc4)" style="fill: #dce9ff; opacity: 0.42"/>
   </g>
   <g id="patch_70">
    <path d="M 174.087682 73.526986 
L 171.388031 73.577749 
Q 175.948252 73.492001 175.789005 71.036498 
L 176.066094 75.309073 
Q 175.906848 72.85357 171.346627 72.939318 
L 174.046278 72.888555 
Q 169.486057 72.974303 169.645304 75.429807 
L 169.368215 71.157231 
Q 169.527461 73.612734 174.087682 73.526986 
z
" clip-path="url(#p1ea1f50cc4)" style="fill: #dcf6de; opacity: 0.2016"/>
   </g>
   <g id="patch_71">
    <path d="M 167.598267 69.615701 
L 165.029182 69.166222 
Q 169.368853 69.925477 170.778897 67.588731 
L 168.32542 71.654669 
Q 169.735464 69.317923 165.395793 68.558668 
L 167.964878 69.008147 
Q 163.625207 68.248892 162.215163 70.585638 
L 164.66864 66.5197 
Q 163.258596 68.856446 167.598267 69.615701 
z
" clip-path="url(#p1ea1f50cc4)" style="fill: #dcf6de; opacity: 0.1092"/>
   </g>
   <g id="patch_72">
    <path d="M 109.643511 65.52 
Q 115.833193 65.52 120.793038 65.52 
" style="fill: none; stroke: #6c7380; stroke-width: 1.1; stroke-linecap: round"/>
    <path d="M 116.793038 63.52 
L 120.793038 65.52 
L 116.793038 67.52 
z
" style="fill: #6c7380; stroke: #6c7380; stroke-width: 1.1; stroke-linecap: round"/>
   </g>
   <g id="text_1">
    <!-- topography limits early biofilm stabilisation -->
    <g style="fill: #28313c" transform="translate(47.907125 9.796969) scale(0.074 -0.074)">
     <defs>
      <path id="ArialMT-74" d="M 1650 503 
L 1731 6 
Q 1494 -44 1306 -44 
Q 1000 -44 831 53 
Q 663 150 594 308 
Q 525 466 525 972 
L 525 2881 
L 113 2881 
L 113 3319 
L 525 3319 
L 525 4141 
L 1084 4478 
L 1084 3319 
L 1650 3319 
L 1650 2881 
L 1084 2881 
L 1084 941 
Q 1084 700 1114 631 
Q 1144 563 1211 522 
Q 1278 481 1403 481 
Q 1497 481 1650 503 
z
" transform="scale(0.015625)"/>
      <path id="ArialMT-6f" d="M 213 1659 
Q 213 2581 725 3025 
Q 1153 3394 1769 3394 
Q 2453 3394 2887 2945 
Q 3322 2497 3322 1706 
Q 3322 1066 3130 698 
Q 2938 331 2570 128 
Q 2203 -75 1769 -75 
Q 1072 -75 642 372 
Q 213 819 213 1659 
z
M 791 1659 
Q 791 1022 1069 705 
Q 1347 388 1769 388 
Q 2188 388 2466 706 
Q 2744 1025 2744 1678 
Q 2744 2294 2464 2611 
Q 2184 2928 1769 2928 
Q 1347 2928 1069 2612 
Q 791 2297 791 1659 
z
" transform="scale(0.015625)"/>
      <path id="ArialMT-70" d="M 422 -1272 
L 422 3319 
L 934 3319 
L 934 2888 
Q 1116 3141 1344 3267 
Q 1572 3394 1897 3394 
Q 2322 3394 2647 3175 
Q 2972 2956 3137 2557 
Q 3303 2159 3303 1684 
Q 3303 1175 3120 767 
Q 2938 359 2589 142 
Q 2241 -75 1856 -75 
Q 1575 -75 1351 44 
Q 1128 163 984 344 
L 984 -1272 
L 422 -1272 
z
M 931 1641 
Q 931 1000 1190 694 
Q 1450 388 1819 388 
Q 2194 388 2461 705 
Q 2728 1022 2728 1688 
Q 2728 2322 2467 2637 
Q 2206 2953 1844 2953 
Q 1484 2953 1207 2617 
Q 931 2281 931 1641 
z
" transform="scale(0.015625)"/>
      <path id="ArialMT-67" d="M 319 -275 
L 866 -356 
Q 900 -609 1056 -725 
Q 1266 -881 1628 -881 
Q 2019 -881 2231 -725 
Q 2444 -569 2519 -288 
Q 2563 -116 2559 434 
Q 2191 0 1641 0 
Q 956 0 581 494 
Q 206 988 206 1678 
Q 206 2153 378 2554 
Q 550 2956 876 3175 
Q 1203 3394 1644 3394 
Q 2231 3394 2613 2919 
L 2613 3319 
L 3131 3319 
L 3131 450 
Q 3131 -325 2973 -648 
Q 2816 -972 2473 -1159 
Q 2131 -1347 1631 -1347 
Q 1038 -1347 672 -1080 
Q 306 -813 319 -275 
z
M 784 1719 
Q 784 1066 1043 766 
Q 1303 466 1694 466 
Q 2081 466 2343 764 
Q 2606 1063 2606 1700 
Q 2606 2309 2336 2618 
Q 2066 2928 1684 2928 
Q 1309 2928 1046 2623 
Q 784 2319 784 1719 
z
" transform="scale(0.015625)"/>
      <path id="ArialMT-72" d="M 416 0 
L 416 3319 
L 922 3319 
L 922 2816 
Q 1116 3169 1280 3281 
Q 1444 3394 1641 3394 
Q 1925 3394 2219 3213 
L 2025 2691 
Q 1819 2813 1613 2813 
Q 1428 2813 1281 2702 
Q 1134 2591 1072 2394 
Q 978 2094 978 1738 
L 978 0 
L 416 0 
z
" transform="scale(0.015625)"/>
      <path id="ArialMT-61" d="M 2588 409 
Q 2275 144 1986 34 
Q 1697 -75 1366 -75 
Q 819 -75 525 192 
Q 231 459 231 875 
Q 231 1119 342 1320 
Q 453 1522 633 1644 
Q 813 1766 1038 1828 
Q 1203 1872 1538 1913 
Q 2219 1994 2541 2106 
Q 2544 2222 2544 2253 
Q 2544 2597 2384 2738 
Q 2169 2928 1744 2928 
Q 1347 2928 1158 2789 
Q 969 2650 878 2297 
L 328 2372 
Q 403 2725 575 2942 
Q 747 3159 1072 3276 
Q 1397 3394 1825 3394 
Q 2250 3394 2515 3294 
Q 2781 3194 2906 3042 
Q 3031 2891 3081 2659 
Q 3109 2516 3109 2141 
L 3109 1391 
Q 3109 606 3145 398 
Q 3181 191 3288 0 
L 2700 0 
Q 2613 175 2588 409 
z
M 2541 1666 
Q 2234 1541 1622 1453 
Q 1275 1403 1131 1340 
Q 988 1278 909 1158 
Q 831 1038 831 891 
Q 831 666 1001 516 
Q 1172 366 1500 366 
Q 1825 366 2078 508 
Q 2331 650 2450 897 
Q 2541 1088 2541 1459 
L 2541 1666 
z
" transform="scale(0.015625)"/>
      <path id="ArialMT-68" d="M 422 0 
L 422 4581 
L 984 4581 
L 984 2938 
Q 1378 3394 1978 3394 
Q 2347 3394 2619 3248 
Q 2891 3103 3008 2847 
Q 3125 2591 3125 2103 
L 3125 0 
L 2563 0 
L 2563 2103 
Q 2563 2525 2380 2717 
Q 2197 2909 1863 2909 
Q 1613 2909 1392 2779 
Q 1172 2650 1078 2428 
Q 984 2206 984 1816 
L 984 0 
L 422 0 
z
" transform="scale(0.015625)"/>
      <path id="ArialMT-79" d="M 397 -1278 
L 334 -750 
Q 519 -800 656 -800 
Q 844 -800 956 -737 
Q 1069 -675 1141 -563 
Q 1194 -478 1313 -144 
Q 1328 -97 1363 -6 
L 103 3319 
L 709 3319 
L 1400 1397 
Q 1534 1031 1641 628 
Q 1738 1016 1872 1384 
L 2581 3319 
L 3144 3319 
L 1881 -56 
Q 1678 -603 1566 -809 
Q 1416 -1088 1222 -1217 
Q 1028 -1347 759 -1347 
Q 597 -1347 397 -1278 
z
" transform="scale(0.015625)"/>
      <path id="ArialMT-20" transform="scale(0.015625)"/>
      <path id="ArialMT-6c" d="M 409 0 
L 409 4581 
L 972 4581 
L 972 0 
L 409 0 
z
" transform="scale(0.015625)"/>
      <path id="ArialMT-69" d="M 425 3934 
L 425 4581 
L 988 4581 
L 988 3934 
L 425 3934 
z
M 425 0 
L 425 3319 
L 988 3319 
L 988 0 
L 425 0 
z
" transform="scale(0.015625)"/>
      <path id="ArialMT-6d" d="M 422 0 
L 422 3319 
L 925 3319 
L 925 2853 
Q 1081 3097 1340 3245 
Q 1600 3394 1931 3394 
Q 2300 3394 2536 3241 
Q 2772 3088 2869 2813 
Q 3263 3394 3894 3394 
Q 4388 3394 4653 3120 
Q 4919 2847 4919 2278 
L 4919 0 
L 4359 0 
L 4359 2091 
Q 4359 2428 4304 2576 
Q 4250 2725 4106 2815 
Q 3963 2906 3769 2906 
Q 3419 2906 3187 2673 
Q 2956 2441 2956 1928 
L 2956 0 
L 2394 0 
L 2394 2156 
Q 2394 2531 2256 2718 
Q 2119 2906 1806 2906 
Q 1569 2906 1367 2781 
Q 1166 2656 1075 2415 
Q 984 2175 984 1722 
L 984 0 
L 422 0 
z
" transform="scale(0.015625)"/>
      <path id="ArialMT-73" d="M 197 991 
L 753 1078 
Q 800 744 1014 566 
Q 1228 388 1613 388 
Q 2000 388 2187 545 
Q 2375 703 2375 916 
Q 2375 1106 2209 1216 
Q 2094 1291 1634 1406 
Q 1016 1563 777 1677 
Q 538 1791 414 1992 
Q 291 2194 291 2438 
Q 291 2659 392 2848 
Q 494 3038 669 3163 
Q 800 3259 1026 3326 
Q 1253 3394 1513 3394 
Q 1903 3394 2198 3281 
Q 2494 3169 2634 2976 
Q 2775 2784 2828 2463 
L 2278 2388 
Q 2241 2644 2061 2787 
Q 1881 2931 1553 2931 
Q 1166 2931 1000 2803 
Q 834 2675 834 2503 
Q 834 2394 903 2306 
Q 972 2216 1119 2156 
Q 1203 2125 1616 2013 
Q 2213 1853 2448 1751 
Q 2684 1650 2818 1456 
Q 2953 1263 2953 975 
Q 2953 694 2789 445 
Q 2625 197 2315 61 
Q 2006 -75 1616 -75 
Q 969 -75 630 194 
Q 291 463 197 991 
z
" transform="scale(0.015625)"/>
      <path id="ArialMT-65" d="M 2694 1069 
L 3275 997 
Q 3138 488 2766 206 
Q 2394 -75 1816 -75 
Q 1088 -75 661 373 
Q 234 822 234 1631 
Q 234 2469 665 2931 
Q 1097 3394 1784 3394 
Q 2450 3394 2872 2941 
Q 3294 2488 3294 1666 
Q 3294 1616 3291 1516 
L 816 1516 
Q 847 969 1125 678 
Q 1403 388 1819 388 
Q 2128 388 2347 550 
Q 2566 713 2694 1069 
z
M 847 1978 
L 2700 1978 
Q 2663 2397 2488 2606 
Q 2219 2931 1791 2931 
Q 1403 2931 1139 2672 
Q 875 2413 847 1978 
z
" transform="scale(0.015625)"/>
      <path id="ArialMT-62" d="M 941 0 
L 419 0 
L 419 4581 
L 981 4581 
L 981 2947 
Q 1338 3394 1891 3394 
Q 2197 3394 2470 3270 
Q 2744 3147 2920 2923 
Q 3097 2700 3197 2384 
Q 3297 2069 3297 1709 
Q 3297 856 2875 390 
Q 2453 -75 1863 -75 
Q 1275 -75 941 416 
L 941 0 
z
M 934 1684 
Q 934 1088 1097 822 
Q 1363 388 1816 388 
Q 2184 388 2453 708 
Q 2722 1028 2722 1663 
Q 2722 2313 2464 2622 
Q 2206 2931 1841 2931 
Q 1472 2931 1203 2611 
Q 934 2291 934 1684 
z
" transform="scale(0.015625)"/>
      <path id="ArialMT-66" d="M 556 0 
L 556 2881 
L 59 2881 
L 59 3319 
L 556 3319 
L 556 3672 
Q 556 4006 616 4169 
Q 697 4388 901 4523 
Q 1106 4659 1475 4659 
Q 1713 4659 2000 4603 
L 1916 4113 
Q 1741 4144 1584 4144 
Q 1328 4144 1222 4034 
Q 1116 3925 1116 3625 
L 1116 3319 
L 1763 3319 
L 1763 2881 
L 1116 2881 
L 1116 0 
L 556 0 
z
" transform="scale(0.015625)"/>
      <path id="ArialMT-6e" d="M 422 0 
L 422 3319 
L 928 3319 
L 928 2847 
Q 1294 3394 1984 3394 
Q 2284 3394 2536 3286 
Q 2788 3178 2913 3003 
Q 3038 2828 3088 2588 
Q 3119 2431 3119 2041 
L 3119 0 
L 2556 0 
L 2556 2019 
Q 2556 2363 2490 2533 
Q 2425 2703 2258 2804 
Q 2091 2906 1866 2906 
Q 1506 2906 1245 2678 
Q 984 2450 984 1813 
L 984 0 
L 422 0 
z
" transform="scale(0.015625)"/>
     </defs>
     <use xlink:href="#ArialMT-74"/>
     <use xlink:href="#ArialMT-6f" transform="translate(27.783203 0)"/>
     <use xlink:href="#ArialMT-70" transform="translate(83.398438 0)"/>
     <use xlink:href="#ArialMT-6f" transform="translate(139.013672 0)"/>
     <use xlink:href="#ArialMT-67" transform="translate(194.628906 0)"/>
     <use xlink:href="#ArialMT-72" transform="translate(250.244141 0)"/>
     <use xlink:href="#ArialMT-61" transform="translate(283.544922 0)"/>
     <use xlink:href="#ArialMT-70" transform="translate(339.160156 0)"/>
     <use xlink:href="#ArialMT-68" transform="translate(394.775391 0)"/>
     <use xlink:href="#ArialMT-79" transform="translate(450.390625 0)"/>
     <use xlink:href="#ArialMT-20" transform="translate(500.390625 0)"/>
     <use xlink:href="#ArialMT-6c" transform="translate(528.173828 0)"/>
     <use xlink:href="#ArialMT-69" transform="translate(550.390625 0)"/>
     <use xlink:href="#ArialMT-6d" transform="translate(572.607422 0)"/>
     <use xlink:href="#ArialMT-69" transform="translate(655.908203 0)"/>
     <use xlink:href="#ArialMT-74" transform="translate(678.125 0)"/>
     <use xlink:href="#ArialMT-73" transform="translate(705.908203 0)"/>
     <use xlink:href="#ArialMT-20" transform="translate(755.908203 0)"/>
     <use xlink:href="#ArialMT-65" transform="translate(783.691406 0)"/>
     <use xlink:href="#ArialMT-61" transform="translate(839.306641 0)"/>
     <use xlink:href="#ArialMT-72" transform="translate(894.921875 0)"/>
     <use xlink:href="#ArialMT-6c" transform="translate(928.222656 0)"/>
     <use xlink:href="#ArialMT-79" transform="translate(950.439453 0)"/>
     <use xlink:href="#ArialMT-20" transform="translate(1000.439453 0)"/>
     <use xlink:href="#ArialMT-62" transform="translate(1028.222656 0)"/>
     <use xlink:href="#ArialMT-69" transform="translate(1083.837891 0)"/>
     <use xlink:href="#ArialMT-6f" transform="translate(1106.054688 0)"/>
     <use xlink:href="#ArialMT-66" transform="translate(1161.669922 0)"/>
     <use xlink:href="#ArialMT-69" transform="translate(1189.453125 0)"/>
     <use xlink:href="#ArialMT-6c" transform="translate(1211.669922 0)"/>
     <use xlink:href="#ArialMT-6d" transform="translate(1233.886719 0)"/>
     <use xlink:href="#ArialMT-20" transform="translate(1317.1875 0)"/>
     <use xlink:href="#ArialMT-73" transform="translate(1344.970703 0)"/>
     <use xlink:href="#ArialMT-74" transform="translate(1394.970703 0)"/>
     <use xlink:href="#ArialMT-61" transform="translate(1422.753906 0)"/>
     <use xlink:href="#ArialMT-62" transform="translate(1478.369141 0)"/>
     <use xlink:href="#ArialMT-69" transform="translate(1533.984375 0)"/>
     <use xlink:href="#ArialMT-6c" transform="translate(1556.201172 0)"/>
     <use xlink:href="#ArialMT-69" transform="translate(1578.417969 0)"/>
     <use xlink:href="#ArialMT-73" transform="translate(1600.634766 0)"/>
     <use xlink:href="#ArialMT-61" transform="translate(1650.634766 0)"/>
     <use xlink:href="#ArialMT-74" transform="translate(1706.25 0)"/>
     <use xlink:href="#ArialMT-69" transform="translate(1734.033203 0)"/>
     <use xlink:href="#ArialMT-6f" transform="translate(1756.25 0)"/>
     <use xlink:href="#ArialMT-6e" transform="translate(1811.865234 0)"/>
    </g>
   </g>
   <g id="text_2">
    <!-- smooth substrate -->
    <g style="fill: #28313c" transform="translate(33.553484 121.23975) scale(0.062 -0.062)">
     <defs>
      <path id="ArialMT-75" d="M 2597 0 
L 2597 488 
Q 2209 -75 1544 -75 
Q 1250 -75 995 37 
Q 741 150 617 320 
Q 494 491 444 738 
Q 409 903 409 1263 
L 409 3319 
L 972 3319 
L 972 1478 
Q 972 1038 1006 884 
Q 1059 663 1231 536 
Q 1403 409 1656 409 
Q 1909 409 2131 539 
Q 2353 669 2445 892 
Q 2538 1116 2538 1541 
L 2538 3319 
L 3100 3319 
L 3100 0 
L 2597 0 
z
" transform="scale(0.015625)"/>
     </defs>
     <use xlink:href="#ArialMT-73"/>
     <use xlink:href="#ArialMT-6d" transform="translate(50 0)"/>
     <use xlink:href="#ArialMT-6f" transform="translate(133.300781 0)"/>
     <use xlink:href="#ArialMT-6f" transform="translate(188.916016 0)"/>
     <use xlink:href="#ArialMT-74" transform="translate(244.53125 0)"/>
     <use xlink:href="#ArialMT-68" transform="translate(272.314453 0)"/>
     <use xlink:href="#ArialMT-20" transform="translate(327.929688 0)"/>
     <use xlink:href="#ArialMT-73" transform="translate(355.712891 0)"/>
     <use xlink:href="#ArialMT-75" transform="translate(405.712891 0)"/>
     <use xlink:href="#ArialMT-62" transform="translate(461.328125 0)"/>
     <use xlink:href="#ArialMT-73" transform="translate(516.943359 0)"/>
     <use xlink:href="#ArialMT-74" transform="translate(566.943359 0)"/>
     <use xlink:href="#ArialMT-72" transform="translate(594.726562 0)"/>
     <use xlink:href="#ArialMT-61" transform="translate(628.027344 0)"/>
     <use xlink:href="#ArialMT-74" transform="translate(683.642578 0)"/>
     <use xlink:href="#ArialMT-65" transform="translate(711.425781 0)"/>
    </g>
   </g>
   <g id="text_3">
    <!-- microspike topography -->
    <g style="fill: #28313c" transform="translate(145.484484 121.167094) scale(0.062 -0.062)">
     <defs>
      <path id="Arial-ItalicMT-6d" d="M 209 0 
L 903 3319 
L 1469 3319 
L 1353 2772 
Q 1669 3125 1917 3259 
Q 2166 3394 2456 3394 
Q 2766 3394 2973 3230 
Q 3181 3066 3247 2772 
Q 3500 3084 3779 3239 
Q 4059 3394 4369 3394 
Q 4784 3394 4992 3197 
Q 5200 3000 5200 2644 
Q 5200 2491 5128 2138 
L 4681 0 
L 4116 0 
L 4572 2194 
Q 4631 2463 4631 2578 
Q 4631 2741 4528 2834 
Q 4425 2928 4238 2928 
Q 3984 2928 3721 2775 
Q 3459 2622 3314 2373 
Q 3169 2125 3059 1609 
L 2722 0 
L 2156 0 
L 2625 2241 
Q 2675 2469 2675 2566 
Q 2675 2728 2573 2828 
Q 2472 2928 2309 2928 
Q 2069 2928 1805 2775 
Q 1541 2622 1375 2348 
Q 1209 2075 1103 1569 
L 775 0 
L 209 0 
z
" transform="scale(0.015625)"/>
      <path id="Arial-ItalicMT-69" d="M 1016 3941 
L 1150 4581 
L 1713 4581 
L 1578 3941 
L 1016 3941 
z
M 191 0 
L 884 3319 
L 1450 3319 
L 756 0 
L 191 0 
z
" transform="scale(0.015625)"/>
      <path id="Arial-ItalicMT-63" d="M 2503 1209 
L 3069 1150 
Q 2856 528 2464 226 
Q 2072 -75 1572 -75 
Q 1031 -75 695 275 
Q 359 625 359 1253 
Q 359 1797 575 2322 
Q 791 2847 1192 3120 
Q 1594 3394 2109 3394 
Q 2644 3394 2956 3092 
Q 3269 2791 3269 2294 
L 2713 2256 
Q 2709 2572 2529 2750 
Q 2350 2928 2056 2928 
Q 1716 2928 1466 2712 
Q 1216 2497 1073 2058 
Q 931 1619 931 1213 
Q 931 788 1118 575 
Q 1306 363 1581 363 
Q 1856 363 2107 572 
Q 2359 781 2503 1209 
z
" transform="scale(0.015625)"/>
      <path id="Arial-ItalicMT-72" d="M 213 0 
L 906 3319 
L 1406 3319 
L 1266 2641 
Q 1522 3025 1767 3209 
Q 2013 3394 2269 3394 
Q 2438 3394 2684 3272 
L 2453 2747 
Q 2306 2853 2131 2853 
Q 1834 2853 1521 2522 
Q 1209 2191 1031 1331 
L 750 0 
L 213 0 
z
" transform="scale(0.015625)"/>
      <path id="Arial-ItalicMT-6f" d="M 313 1259 
Q 313 2231 884 2869 
Q 1356 3394 2122 3394 
Q 2722 3394 3089 3019 
Q 3456 2644 3456 2006 
Q 3456 1434 3225 942 
Q 2994 450 2567 187 
Q 2141 -75 1669 -75 
Q 1281 -75 964 90 
Q 647 256 480 559 
Q 313 863 313 1259 
z
M 878 1316 
Q 878 847 1103 605 
Q 1328 363 1675 363 
Q 1856 363 2034 436 
Q 2213 509 2366 659 
Q 2519 809 2626 1001 
Q 2734 1194 2800 1416 
Q 2897 1725 2897 2009 
Q 2897 2459 2670 2707 
Q 2444 2956 2100 2956 
Q 1834 2956 1615 2829 
Q 1397 2703 1220 2459 
Q 1044 2216 961 1892 
Q 878 1569 878 1316 
z
" transform="scale(0.015625)"/>
      <path id="Arial-ItalicMT-73" d="M 266 1134 
L 831 1169 
Q 831 925 906 753 
Q 981 581 1182 472 
Q 1384 363 1653 363 
Q 2028 363 2215 513 
Q 2403 663 2403 866 
Q 2403 1013 2291 1144 
Q 2175 1275 1726 1467 
Q 1278 1659 1153 1738 
Q 944 1866 837 2039 
Q 731 2213 731 2438 
Q 731 2831 1043 3112 
Q 1356 3394 1919 3394 
Q 2544 3394 2870 3105 
Q 3197 2816 3209 2344 
L 2656 2306 
Q 2644 2606 2444 2781 
Q 2244 2956 1878 2956 
Q 1584 2956 1421 2822 
Q 1259 2688 1259 2531 
Q 1259 2375 1400 2256 
Q 1494 2175 1884 2006 
Q 2534 1725 2703 1563 
Q 2972 1303 2972 931 
Q 2972 684 2820 446 
Q 2669 209 2358 67 
Q 2047 -75 1625 -75 
Q 1050 -75 647 209 
Q 244 494 266 1134 
z
" transform="scale(0.015625)"/>
      <path id="Arial-ItalicMT-70" d="M -66 -1272 
L 894 3319 
L 1416 3319 
L 1319 2856 
Q 1609 3159 1839 3276 
Q 2069 3394 2325 3394 
Q 2800 3394 3112 3048 
Q 3425 2703 3425 2059 
Q 3425 1541 3253 1114 
Q 3081 688 2831 428 
Q 2581 169 2325 47 
Q 2069 -75 1800 -75 
Q 1203 -75 875 531 
L 500 -1272 
L -66 -1272 
z
M 1053 1356 
Q 1053 984 1106 841 
Q 1184 638 1362 513 
Q 1541 388 1775 388 
Q 2263 388 2563 936 
Q 2863 1484 2863 2056 
Q 2863 2478 2661 2708 
Q 2459 2938 2159 2938 
Q 1944 2938 1759 2823 
Q 1575 2709 1417 2482 
Q 1259 2256 1156 1928 
Q 1053 1600 1053 1356 
z
" transform="scale(0.015625)"/>
      <path id="Arial-ItalicMT-6b" d="M 219 0 
L 1178 4581 
L 1741 4581 
L 1147 1741 
L 2797 3319 
L 3544 3319 
L 2128 2081 
L 2984 0 
L 2366 0 
L 1703 1703 
L 1016 1109 
L 784 0 
L 219 0 
z
" transform="scale(0.015625)"/>
      <path id="Arial-ItalicMT-65" d="M 2650 1128 
L 3200 1072 
Q 3081 663 2654 294 
Q 2228 -75 1638 -75 
Q 1269 -75 961 95 
Q 653 266 492 591 
Q 331 916 331 1331 
Q 331 1875 582 2386 
Q 834 2897 1234 3145 
Q 1634 3394 2100 3394 
Q 2694 3394 3048 3025 
Q 3403 2656 3403 2019 
Q 3403 1775 3359 1519 
L 916 1519 
Q 903 1422 903 1344 
Q 903 878 1117 633 
Q 1331 388 1641 388 
Q 1931 388 2212 578 
Q 2494 769 2650 1128 
z
M 1006 1950 
L 2869 1950 
Q 2872 2038 2872 2075 
Q 2872 2500 2659 2726 
Q 2447 2953 2113 2953 
Q 1750 2953 1451 2703 
Q 1153 2453 1006 1950 
z
" transform="scale(0.015625)"/>
      <path id="Arial-ItalicMT-20" transform="scale(0.015625)"/>
      <path id="Arial-ItalicMT-74" d="M 1534 459 
L 1441 -3 
Q 1238 -56 1047 -56 
Q 709 -56 509 109 
Q 359 234 359 450 
Q 359 559 441 953 
L 844 2881 
L 397 2881 
L 488 3319 
L 934 3319 
L 1106 4134 
L 1753 4525 
L 1500 3319 
L 2056 3319 
L 1963 2881 
L 1409 2881 
L 1025 1047 
Q 953 697 953 628 
Q 953 528 1011 475 
Q 1069 422 1200 422 
Q 1388 422 1534 459 
z
" transform="scale(0.015625)"/>
      <path id="Arial-ItalicMT-67" d="M 181 -300 
L 753 -353 
Q 747 -547 800 -644 
Q 853 -741 969 -794 
Q 1122 -863 1366 -863 
Q 1878 -863 2103 -597 
Q 2250 -419 2375 178 
L 2431 447 
Q 1991 0 1494 0 
Q 991 0 652 370 
Q 313 741 313 1419 
Q 313 1978 580 2447 
Q 847 2916 1215 3155 
Q 1584 3394 1975 3394 
Q 2628 3394 2981 2775 
L 3094 3319 
L 3613 3319 
L 2944 116 
Q 2834 -413 2656 -708 
Q 2478 -1003 2161 -1165 
Q 1844 -1328 1428 -1328 
Q 1028 -1328 739 -1225 
Q 450 -1122 308 -923 
Q 166 -725 166 -469 
Q 166 -391 181 -300 
z
M 888 1469 
Q 888 1128 953 956 
Q 1047 716 1220 589 
Q 1394 463 1606 463 
Q 1884 463 2159 658 
Q 2434 853 2604 1262 
Q 2775 1672 2775 2044 
Q 2775 2453 2548 2695 
Q 2322 2938 1988 2938 
Q 1781 2938 1587 2827 
Q 1394 2716 1226 2489 
Q 1059 2263 973 1947 
Q 888 1631 888 1469 
z
" transform="scale(0.015625)"/>
      <path id="Arial-ItalicMT-61" d="M 2450 413 
Q 2156 159 1884 42 
Q 1613 -75 1303 -75 
Q 844 -75 562 195 
Q 281 466 281 888 
Q 281 1166 407 1380 
Q 534 1594 743 1723 
Q 953 1853 1256 1909 
Q 1447 1947 1980 1969 
Q 2513 1991 2744 2081 
Q 2809 2313 2809 2466 
Q 2809 2663 2666 2775 
Q 2469 2931 2091 2931 
Q 1734 2931 1507 2773 
Q 1281 2616 1178 2325 
L 606 2375 
Q 781 2869 1161 3131 
Q 1541 3394 2119 3394 
Q 2734 3394 3094 3100 
Q 3369 2881 3369 2531 
Q 3369 2266 3291 1916 
L 3106 1091 
Q 3019 697 3019 450 
Q 3019 294 3088 0 
L 2516 0 
Q 2469 163 2450 413 
z
M 2659 1681 
Q 2541 1634 2405 1609 
Q 2269 1584 1950 1556 
Q 1456 1513 1253 1445 
Q 1050 1378 947 1231 
Q 844 1084 844 906 
Q 844 669 1008 516 
Q 1172 363 1475 363 
Q 1756 363 2015 511 
Q 2275 659 2425 925 
Q 2575 1191 2659 1681 
z
" transform="scale(0.015625)"/>
      <path id="Arial-ItalicMT-68" d="M 213 0 
L 1169 4581 
L 1734 4581 
L 1369 2822 
Q 1684 3128 1956 3261 
Q 2228 3394 2516 3394 
Q 2928 3394 3156 3176 
Q 3384 2959 3384 2603 
Q 3384 2428 3284 1959 
L 2875 0 
L 2309 0 
L 2731 2009 
Q 2822 2447 2822 2559 
Q 2822 2722 2709 2825 
Q 2597 2928 2384 2928 
Q 2078 2928 1800 2767 
Q 1522 2606 1364 2326 
Q 1206 2047 1075 1425 
L 778 0 
L 213 0 
z
" transform="scale(0.015625)"/>
      <path id="Arial-ItalicMT-79" d="M 0 -1281 
L 34 -750 
Q 209 -800 375 -800 
Q 547 -800 653 -722 
Q 791 -619 953 -334 
L 1134 -9 
L 581 3319 
L 1138 3319 
L 1388 1641 
Q 1463 1144 1516 647 
L 3000 3319 
L 3591 3319 
L 1475 -441 
Q 1169 -991 931 -1169 
Q 694 -1347 384 -1347 
Q 188 -1347 0 -1281 
z
" transform="scale(0.015625)"/>
     </defs>
     <use xlink:href="#Arial-ItalicMT-6d"/>
     <use xlink:href="#Arial-ItalicMT-69" transform="translate(83.300781 0)"/>
     <use xlink:href="#Arial-ItalicMT-63" transform="translate(105.517578 0)"/>
     <use xlink:href="#Arial-ItalicMT-72" transform="translate(155.517578 0)"/>
     <use xlink:href="#Arial-ItalicMT-6f" transform="translate(188.818359 0)"/>
     <use xlink:href="#Arial-ItalicMT-73" transform="translate(244.433594 0)"/>
     <use xlink:href="#Arial-ItalicMT-70" transform="translate(294.433594 0)"/>
     <use xlink:href="#Arial-ItalicMT-69" transform="translate(350.048828 0)"/>
     <use xlink:href="#Arial-ItalicMT-6b" transform="translate(372.265625 0)"/>
     <use xlink:href="#Arial-ItalicMT-65" transform="translate(422.265625 0)"/>
     <use xlink:href="#Arial-ItalicMT-20" transform="translate(477.880859 0)"/>
     <use xlink:href="#Arial-ItalicMT-74" transform="translate(505.664062 0)"/>
     <use xlink:href="#Arial-ItalicMT-6f" transform="translate(533.447266 0)"/>
     <use xlink:href="#Arial-ItalicMT-70" transform="translate(589.0625 0)"/>
     <use xlink:href="#Arial-ItalicMT-6f" transform="translate(644.677734 0)"/>
     <use xlink:href="#Arial-ItalicMT-67" transform="translate(700.292969 0)"/>
     <use xlink:href="#Arial-ItalicMT-72" transform="translate(755.908203 0)"/>
     <use xlink:href="#Arial-ItalicMT-61" transform="translate(789.208984 0)"/>
     <use xlink:href="#Arial-ItalicMT-70" transform="translate(844.824219 0)"/>
     <use xlink:href="#Arial-ItalicMT-68" transform="translate(900.439453 0)"/>
     <use xlink:href="#Arial-ItalicMT-79" transform="translate(956.054688 0)"/>
    </g>
   </g>
  </g>
 </g>
 <defs>
  <clipPath id="p1ea1f50cc4">
   <rect x="0" y="0" width="234" height="126"/>
  </clipPath>
 </defs>
</svg>
